<svg width="164" height="164" viewBox="0 0 164 164" fill="none" xmlns="http://www.w3.org/2000/svg">
<path d="M122.937 41.9254L39.8981 120.848" stroke="black" stroke-width="4" stroke-linecap="round"/>
<path d="M121.51 123.503L42.3974 40.6453" stroke="black" stroke-width="4" stroke-linecap="round"/>
<path d="M108.604 94.0506L127.158 93.9096" stroke="black" stroke-width="4" stroke-linecap="round"/>
<path d="M108.605 93.7829L123.175 68.7986" stroke="black" stroke-width="4" stroke-linecap="round"/>
<path d="M137.534 93.9263L123.212 68.7986" stroke="black" stroke-width="4" stroke-linecap="round"/>
<path d="M56.766 69.4388L38.2113 69.4464" stroke="black" stroke-width="4" stroke-linecap="round"/>
<path d="M56.7634 69.7064L42.0137 94.5855" stroke="black" stroke-width="4" stroke-linecap="round"/>
<path d="M27.8361 69.3552L41.9773 94.5851" stroke="black" stroke-width="4" stroke-linecap="round"/>
<path d="M67.032 54.7887L85.5861 54.6468" stroke="black" stroke-width="4" stroke-linecap="round"/>
<path d="M67.0326 54.5192L81.6036 29.3628" stroke="black" stroke-width="4" stroke-linecap="round"/>
<path d="M95.9619 54.663L81.6401 29.3629" stroke="black" stroke-width="4" stroke-linecap="round"/>
<path d="M90.8008 47.1265L79.6911 47.102" stroke="black" stroke-width="4" stroke-linecap="round"/>
<path d="M94.2397 108.156L75.6853 108.248" stroke="black" stroke-width="4" stroke-linecap="round"/>
<path d="M94.2384 108.425L79.601 133.543" stroke="black" stroke-width="4" stroke-linecap="round"/>
<path d="M65.3097 108.205L79.5646 133.543" stroke="black" stroke-width="4" stroke-linecap="round"/>
<path d="M70.4508 115.755L81.5604 115.809" stroke="black" stroke-width="4" stroke-linecap="round"/>
</svg>
